<svg width="1512" height="523" viewBox="0 0 1512 523" fill="none" xmlns="http://www.w3.org/2000/svg">
<path d="M-111 512C43.9729 209.693 373.734 1 755.5 1C1137.27 1 1467.03 209.693 1622 512M878.888 9.99997L900.477 35.7694L898.905 73.1034L915.002 69.5469L949.427 69.1324L952.61 81.7855L943.546 100.227L923.815 104.586L916.757 100.495L914.186 90.2753L899.648 93.4876L895.81 117.452L881.304 127.335L863.098 124.68L850.669 134.104L864.33 147.011L887.914 153.615L901.727 164.947L895.504 183.788L878.888 187.459L883.417 205.466L901.264 224.125L919.679 212.351L957.583 203.976L965.154 187.459L949.427 171.5L987.559 147.011L1018.5 159L1013.7 177.5V191.5L1027.57 187.459L1038.24 164.947V147.011L1078.25 153.615L1138.53 134.104L1186.54 147.011V171.5L1231.89 164.947L1254.29 134.104M423.148 57L388.473 101L371.935 137.5L388.473 175L371.935 189L353.797 203.5V242.5L371.935 256.5V294L341.527 317.5L279.111 328L254.572 354L268.442 382.5L316.454 409.5L254.572 398.5L212.961 374.5L153.213 367H110.535L99.3321 382.5H54.5206L27.3136 374.5L33.7153 349.5V306.5M916.074 227.5L903.271 292L916.074 318L969.421 342.5L1030.24 326.5L1057.98 370L1067.05 422.5L1113.46 438L1167.87 422.5L1194.01 381C1192.23 367 1195.29 303.4 1194.01 299C1192.73 294.6 1164.85 287 1154.54 266.5L1113.46 227.5L1075.05 211H1030.24L981.691 221L958.752 232L916.074 227.5ZM226.831 463.5L279.111 471.5L343.128 463.5L371.402 444L387.939 432L431.684 444V463.5L448.755 491.5L226.831 522L132.407 507.5H60.3888L33.1818 463.5L60.3888 412V398.5L104.133 412L123.872 432V444L208.693 398.5L218.296 412L226.831 432V463.5Z" stroke="url(#paint0_radial_49_13)" stroke-width="2" stroke-linecap="round" stroke-linejoin="round"/>
<defs>
<radialGradient id="paint0_radial_49_13" cx="0" cy="0" r="1" gradientUnits="userSpaceOnUse" gradientTransform="translate(754.966 118) rotate(90) scale(394 1310.56)">
<stop stop-color="#0094FF"/>
<stop offset="1" stop-color="#0094FF" stop-opacity="0"/>
</radialGradient>
</defs>
</svg>
